<svg width="32" height="32" viewBox="0 0 32 32" fill="none" xmlns="http://www.w3.org/2000/svg">
<path d="M18.0436 14.919C18.5531 15.8214 18.0233 16.9575 16.8107 17.6422C15.429 18.4225 14.0048 18.0739 13.3605 16.8013C12.8375 15.7764 13.115 14.5225 13.983 14.0509C15.0686 13.4379 17.5163 13.9523 18.0436 14.919ZM14.3896 16.6479C15.5502 17.0895 16.5382 17.1267 17.0156 15.667C14.9805 14.5661 14.6808 14.661 14.3896 16.6479ZM24.331 15.0874C25.6987 14.3151 27.4526 14.5891 27.9554 15.644C28.3945 16.5862 27.8505 17.7302 26.63 18.4009C25.2905 19.1573 23.767 18.9949 23.1611 18.054C22.5156 17.0425 22.9977 15.8218 24.331 15.0874ZM24.1175 17.1791C25.2378 17.6809 26.1228 17.4042 26.7649 16.3349C25.2406 15.1503 24.7838 15.2966 24.1175 17.1791ZM20.1275 19.4324C19.9347 17.0495 20.4351 11.4486 21.1232 10C21.8439 13.6469 20.799 16.9334 21.4959 20.1102C21.5705 20.4399 21.1567 20.8596 20.5601 21.2522C20.4066 20.651 20.1806 20.0533 20.1275 19.4324Z" fill="#230C33"/>
<path d="M13.0624 14.919C12.5529 15.8214 13.0828 16.9575 14.2953 17.6422C15.6771 18.4225 17.1013 18.0739 17.7456 16.8013C18.2686 15.7764 17.9911 14.5225 17.1231 14.0509C16.0375 13.4379 13.5898 13.9523 13.0624 14.919ZM16.7165 16.6479C15.5559 17.0895 14.5679 17.1267 14.0905 15.667C16.1256 14.5661 16.4253 14.661 16.7165 16.6479ZM6.77508 15.0874C5.40739 14.3151 3.65353 14.5891 3.15063 15.644C2.71156 16.5862 3.25561 17.7302 4.47608 18.4009C5.81557 19.1573 7.3391 18.9949 7.94496 18.054C8.59048 17.0425 8.10836 15.8218 6.77508 15.0874ZM6.98855 17.1791C5.86833 17.6809 4.9833 17.4042 4.34115 16.3349C5.86549 15.1503 6.32224 15.2966 6.98855 17.1791ZM10.9785 19.4324C11.1714 17.0495 10.671 11.4486 9.98286 10C9.26218 13.6469 10.3071 16.9334 9.61017 20.1102C9.53555 20.4399 9.9494 20.8596 10.5459 21.2522C10.6995 20.651 10.9255 20.0533 10.9785 19.4324Z" fill="#230C33"/>
</svg>
