<svg width="78" height="32" viewBox="0 0 78 32" fill="none" xmlns="http://www.w3.org/2000/svg">
<g clip-path="url(#clip0_15_2)">
<path d="M47.1386 13.9892C48.5876 16.5553 47.0806 19.7862 43.6324 21.7336C39.7029 23.9527 35.6526 22.9612 33.8203 19.3421C32.3329 16.4273 33.122 12.8615 35.5905 11.5204C38.678 9.77685 45.6389 11.24 47.1386 13.9892ZM36.7469 18.9057C40.0475 20.1618 42.8572 20.2674 44.2149 16.1162C38.4274 12.9855 37.5751 13.2554 36.7469 18.9057ZM65.0191 14.4681C68.9086 12.2717 73.8964 13.0509 75.3266 16.051C76.5753 18.7304 75.0281 21.9839 71.5572 23.8912C67.7478 26.0423 63.4151 25.5806 61.6921 22.9045C59.8563 20.028 61.2274 16.5565 65.0191 14.4681ZM64.412 20.4166C67.5978 21.8435 70.1147 21.0566 71.9409 18.0158C67.6059 14.6468 66.3069 15.0629 64.412 20.4166ZM53.065 26.8247C52.5166 20.0479 53.9395 4.11959 55.8966 0C57.9461 10.3713 54.9744 19.7177 56.9564 28.7521C57.1686 29.6899 55.9917 30.8833 54.2952 32C53.8585 30.2901 53.2158 28.5904 53.065 26.8247Z" fill="#CAA8F5"/>
<path d="M32.9729 13.9892C31.5239 16.5553 33.0308 19.7862 36.4791 21.7336C40.4085 23.9527 44.4589 22.9612 46.2912 19.3421C47.7785 16.4273 46.9894 12.8615 44.5209 11.5204C41.4335 9.77685 34.4725 11.24 32.9729 13.9892ZM43.3646 18.9057C40.0639 20.1618 37.2542 20.2674 35.8966 16.1162C41.6841 12.9855 42.5363 13.2554 43.3646 18.9057ZM15.0923 14.4681C11.2028 12.2717 6.21501 13.0509 4.78483 16.051C3.53616 18.7304 5.08338 21.9839 8.55426 23.8912C12.3636 26.0423 16.6964 25.5806 18.4193 22.9045C20.2551 20.028 18.884 16.5565 15.0923 14.4681ZM15.6994 20.4166C12.5136 21.8435 9.99672 21.0566 8.17053 18.0158C12.5056 14.6468 13.8045 15.0629 15.6994 20.4166ZM27.0465 26.8247C27.5948 20.0479 26.1719 4.11959 24.2149 0C22.1654 10.3713 25.137 19.7177 23.155 28.7521C22.9428 29.6899 24.1197 30.8833 25.8162 32C26.2529 30.2901 26.8957 28.5904 27.0465 26.8247Z" fill="#CAA8F5"/>
</g>
<defs>
<clipPath id="clip0_15_2">
<rect width="78" height="32" fill="white"/>
</clipPath>
</defs>
</svg>
