<svg width="256" height="256" viewBox="0 0 256 256" fill="none" xmlns="http://www.w3.org/2000/svg">
<path d="M152.785 121.305C157.892 130.349 152.581 141.736 140.428 148.6C126.578 156.421 112.303 152.926 105.845 140.171C100.603 129.898 103.384 117.33 112.084 112.603C122.966 106.458 147.5 111.615 152.785 121.305ZM116.16 138.633C127.793 143.06 137.696 143.432 142.481 128.801C122.083 117.767 119.079 118.718 116.16 138.633ZM215.805 122.993C229.513 115.251 247.093 117.998 252.133 128.571C256.534 138.015 251.081 149.482 238.848 156.204C225.422 163.786 210.151 162.158 204.079 152.727C197.609 142.588 202.441 130.353 215.805 122.993ZM213.665 143.958C224.893 148.987 233.764 146.214 240.201 135.496C224.922 123.622 220.344 125.089 213.665 143.958ZM173.673 166.543C171.74 142.658 176.755 86.5194 183.653 72C190.876 108.553 180.403 141.495 187.388 173.336C188.136 176.642 183.988 180.848 178.009 184.783C176.47 178.757 174.204 172.766 173.673 166.543Z" fill="#230C33"/>
<path d="M102.858 121.305C97.7516 130.349 103.063 141.736 115.216 148.6C129.065 156.421 143.341 152.926 149.798 140.171C155.041 129.898 152.26 117.33 143.559 112.603C132.678 106.458 108.144 111.615 102.858 121.305ZM139.484 138.633C127.851 143.06 117.948 143.432 113.163 128.801C133.561 117.767 136.565 118.718 139.484 138.633ZM39.8389 122.993C26.1303 115.251 8.55091 117.998 3.51026 128.571C-0.890666 138.015 4.56248 149.482 16.7956 156.204C30.2215 163.786 45.4922 162.158 51.5648 152.727C58.035 142.588 53.2026 130.353 39.8389 122.993ZM41.9785 143.958C30.7503 148.987 21.8795 146.214 15.4431 135.496C30.7219 123.622 35.3 125.089 41.9785 143.958ZM81.971 166.543C83.9037 142.658 78.8887 86.5194 71.9911 72C64.7676 108.553 75.2411 141.495 68.2556 173.336C67.5077 176.642 71.6557 180.848 77.635 184.783C79.1741 178.757 81.4395 172.766 81.971 166.543Z" fill="#230C33"/>
</svg>
